<svg width="20" height="20" viewBox="0 0 20 20" fill="none" xmlns="http://www.w3.org/2000/svg">
<path d="M7.16756 11.7667L10.9926 15.5917C11.1487 15.7469 11.3599 15.834 11.5801 15.834C11.8002 15.834 12.0114 15.7469 12.1676 15.5917C12.2457 15.5142 12.3077 15.422 12.35 15.3205C12.3923 15.2189 12.4141 15.11 12.4141 15C12.4141 14.89 12.3923 14.7811 12.35 14.6795C12.3077 14.578 12.2457 14.4858 12.1676 14.4083L8.33423 10.5917C8.25612 10.5142 8.19413 10.422 8.15182 10.3205C8.10951 10.2189 8.08773 10.11 8.08773 9.99999C8.08773 9.88998 8.10951 9.78106 8.15182 9.67951C8.19413 9.57796 8.25612 9.48579 8.33423 9.40832L12.1676 5.59166C12.3245 5.43584 12.4131 5.22407 12.4139 5.00294C12.4146 4.7818 12.3275 4.56941 12.1717 4.41249C12.0159 4.25557 11.8041 4.16697 11.583 4.16619C11.3619 4.16541 11.1495 4.25251 10.9926 4.40832L7.16756 8.23332C6.6994 8.70208 6.43643 9.33749 6.43643 9.99999C6.43643 10.6625 6.6994 11.2979 7.16756 11.7667Z" fill="#1A1A1A"/>
</svg>
