<svg width="20" height="20" viewBox="0 0 20 20" fill="none" xmlns="http://www.w3.org/2000/svg">
<path d="M12.8324 8.23334L9.00744 4.40834C8.8513 4.25313 8.64009 4.16602 8.41994 4.16602C8.19978 4.16602 7.98857 4.25313 7.83244 4.40834C7.75433 4.48581 7.69233 4.57798 7.65003 4.67953C7.60772 4.78108 7.58594 4.89 7.58594 5.00001C7.58594 5.11002 7.60772 5.21894 7.65003 5.32049C7.69233 5.42204 7.75433 5.51421 7.83244 5.59168L11.6658 9.40834C11.7439 9.48581 11.8059 9.57798 11.8482 9.67953C11.8905 9.78108 11.9123 9.89 11.9123 10C11.9123 10.11 11.8905 10.2189 11.8482 10.3205C11.8059 10.422 11.7439 10.5142 11.6658 10.5917L7.83244 14.4083C7.67552 14.5642 7.58692 14.7759 7.58614 14.9971C7.58536 15.2182 7.67246 15.4306 7.82827 15.5875C7.98408 15.7444 8.19585 15.833 8.41699 15.8338C8.63813 15.8346 8.85052 15.7475 9.00744 15.5917L12.8324 11.7667C13.3006 11.2979 13.5636 10.6625 13.5636 10C13.5636 9.33751 13.3006 8.70209 12.8324 8.23334Z" fill="#1A1A1A"/>
</svg>
