<svg width="12" height="12" viewBox="0 0 12 12" fill="none" xmlns="http://www.w3.org/2000/svg">
<g clip-path="url(#clip0_213_1976)">
<path d="M11.1593 2.2155L4.24982 9.1245C4.20336 9.17114 4.14815 9.20815 4.08736 9.2334C4.02657 9.25865 3.96139 9.27165 3.89557 9.27165C3.82974 9.27165 3.76456 9.25865 3.70377 9.2334C3.64298 9.20815 3.58777 9.17114 3.54132 9.1245L0.869316 6.45C0.822862 6.40337 0.767655 6.36636 0.706864 6.34111C0.646072 6.31586 0.580893 6.30286 0.515067 6.30286C0.44924 6.30286 0.384061 6.31586 0.323269 6.34111C0.262478 6.36636 0.207271 6.40337 0.160816 6.45C0.114178 6.49646 0.0771718 6.55167 0.051921 6.61246C0.0266702 6.67325 0.0136719 6.73843 0.0136719 6.80425C0.0136719 6.87008 0.0266702 6.93526 0.051921 6.99605C0.0771718 7.05684 0.114178 7.11205 0.160816 7.1585L2.83382 9.831C3.11579 10.1125 3.49792 10.2705 3.89632 10.2705C4.29472 10.2705 4.67684 10.1125 4.95882 9.831L11.8678 2.9235C11.9144 2.87706 11.9513 2.82188 11.9765 2.76114C12.0017 2.70039 12.0147 2.63527 12.0147 2.5695C12.0147 2.50374 12.0017 2.43862 11.9765 2.37787C11.9513 2.31713 11.9144 2.26195 11.8678 2.2155C11.8214 2.16887 11.7662 2.13186 11.7054 2.10661C11.6446 2.08136 11.5794 2.06836 11.5136 2.06836C11.4477 2.06836 11.3826 2.08136 11.3218 2.10661C11.261 2.13186 11.2058 2.16887 11.1593 2.2155Z" fill="white"/>
</g>
<defs>
<clipPath id="clip0_213_1976">
<rect width="12" height="12" fill="white"/>
</clipPath>
</defs>
</svg>
