<svg width="24" height="24" viewBox="0 0 24 24" fill="none" xmlns="http://www.w3.org/2000/svg">
<path d="M12 0C9.34873 0.0029116 6.80688 1.05742 4.93215 2.93215C3.05742 4.80688 2.00291 7.34873 2 10C2 15.282 10.4 22.533 11.354 23.343L12 23.889L12.646 23.343C13.6 22.533 22 15.282 22 10C21.9971 7.34873 20.9426 4.80688 19.0679 2.93215C17.1931 1.05742 14.6513 0.0029116 12 0ZM12 15C11.0111 15 10.0444 14.7068 9.22215 14.1573C8.3999 13.6079 7.75904 12.827 7.3806 11.9134C7.00216 10.9998 6.90315 9.99445 7.09607 9.02455C7.289 8.05464 7.7652 7.16373 8.46447 6.46447C9.16373 5.7652 10.0546 5.289 11.0245 5.09607C11.9945 4.90315 12.9998 5.00216 13.9134 5.3806C14.827 5.75904 15.6079 6.3999 16.1573 7.22215C16.7068 8.04439 17 9.01109 17 10C16.9984 11.3256 16.4711 12.5964 15.5338 13.5338C14.5964 14.4711 13.3256 14.9984 12 15Z" fill="#2563EB"/>
<path d="M12 13C13.6569 13 15 11.6569 15 10C15 8.34315 13.6569 7 12 7C10.3431 7 9 8.34315 9 10C9 11.6569 10.3431 13 12 13Z" fill="#2563EB"/>
</svg>
