<svg width="16" height="16" viewBox="0 0 16 16" fill="none" xmlns="http://www.w3.org/2000/svg">
<g clip-path="url(#clip0_74_262)">
<path d="M0.884795 8.26647L3.25813 9.99981L2.3568 12.7911C2.21114 13.2241 2.20929 13.6925 2.35154 14.1265C2.49378 14.5606 2.77249 14.9371 3.14613 15.1998C3.51336 15.471 3.95839 15.6163 4.4149 15.614C4.87141 15.6117 5.31496 15.462 5.67946 15.1871L8.00013 13.4791L10.3215 15.1851C10.688 15.4548 11.1307 15.6012 11.5857 15.6034C12.0408 15.6057 12.4848 15.4635 12.854 15.1975C13.2232 14.9314 13.4985 14.5552 13.6403 14.1228C13.7822 13.6904 13.7833 13.2242 13.6435 12.7911L12.7421 9.99981L15.1155 8.26647C15.4816 7.99881 15.7537 7.62231 15.893 7.19073C16.0324 6.75916 16.0317 6.2946 15.8912 5.8634C15.7508 5.4322 15.4776 5.05642 15.1108 4.78974C14.744 4.52306 14.3023 4.37912 13.8488 4.37847H10.9335L10.0488 1.62114C9.90968 1.18711 9.63631 0.808483 9.26811 0.53985C8.89991 0.271218 8.45591 0.126465 8.00013 0.126465C7.54435 0.126465 7.10035 0.271218 6.73215 0.53985C6.36395 0.808483 6.09058 1.18711 5.95146 1.62114L5.0668 4.37847H2.15413C1.70062 4.37912 1.25892 4.52306 0.892115 4.78974C0.525307 5.05642 0.252156 5.4322 0.111676 5.8634C-0.0288034 6.2946 -0.0294251 6.75916 0.1099 7.19073C0.249224 7.62231 0.521369 7.99881 0.887462 8.26647H0.884795Z" fill="#2563EB"/>
</g>
<defs>
<clipPath id="clip0_74_262">
<rect width="16" height="16" fill="white"/>
</clipPath>
</defs>
</svg>
