<svg width="16" height="17" viewBox="0 0 16 17" fill="none" xmlns="http://www.w3.org/2000/svg">
<path d="M12.4735 5.97357C12.4116 5.91108 12.3378 5.86148 12.2566 5.82764C12.1753 5.79379 12.0882 5.77637 12.0002 5.77637C11.9122 5.77637 11.8251 5.79379 11.7438 5.82764C11.6626 5.86148 11.5888 5.91108 11.5269 5.97357L8.47354 9.0269C8.41156 9.08939 8.33783 9.13898 8.25659 9.17283C8.17535 9.20667 8.08821 9.2241 8.0002 9.2241C7.9122 9.2241 7.82506 9.20667 7.74382 9.17283C7.66258 9.13898 7.58884 9.08939 7.52687 9.0269L4.47354 5.97357C4.41156 5.91108 4.33783 5.86148 4.25659 5.82764C4.17535 5.79379 4.08821 5.77637 4.0002 5.77637C3.91219 5.77637 3.82506 5.79379 3.74382 5.82764C3.66258 5.86148 3.58884 5.91108 3.52687 5.97357C3.4027 6.09847 3.33301 6.26744 3.33301 6.44357C3.33301 6.61969 3.4027 6.78866 3.52687 6.91357L6.58687 9.97357C6.96187 10.3481 7.4702 10.5585 8.0002 10.5585C8.5302 10.5585 9.03854 10.3481 9.41354 9.97357L12.4735 6.91357C12.5977 6.78866 12.6674 6.61969 12.6674 6.44357C12.6674 6.26744 12.5977 6.09847 12.4735 5.97357Z" fill="#1A1A1A"/>
</svg>
