<svg width="20" height="20" viewBox="0 0 20 20" fill="none" xmlns="http://www.w3.org/2000/svg">
<path d="M14.758 8.23348L11.1747 4.65848C10.8624 4.34806 10.44 4.17383 9.99968 4.17383C9.55937 4.17383 9.13695 4.34806 8.82468 4.65848L5.24135 8.23348C5.08614 8.38962 4.99902 8.60083 4.99902 8.82098C4.99902 9.04114 5.08614 9.25235 5.24135 9.40848C5.31882 9.48659 5.41099 9.54858 5.51254 9.59089C5.61409 9.6332 5.72301 9.65498 5.83302 9.65498C5.94303 9.65498 6.05195 9.6332 6.1535 9.59089C6.25505 9.54858 6.34721 9.48659 6.42468 9.40848L9.16635 6.66682V15.8335C9.16635 16.0545 9.25415 16.2665 9.41043 16.4227C9.56671 16.579 9.77867 16.6668 9.99968 16.6668C10.2207 16.6668 10.4327 16.579 10.5889 16.4227C10.7452 16.2665 10.833 16.0545 10.833 15.8335V6.66682L13.5747 9.40848C13.7305 9.5654 13.9423 9.654 14.1634 9.65478C14.3845 9.65556 14.5969 9.56846 14.7538 9.41265C14.9108 9.25683 14.9994 9.04507 15.0001 8.82393C15.0009 8.60279 14.9138 8.3904 14.758 8.23348Z" fill="#666666"/>
</svg>
