<svg width="24" height="24" viewBox="0 0 24 24" fill="none" xmlns="http://www.w3.org/2000/svg">
<g clip-path="url(#clip0_181_2155)">
<path d="M23.2701 9.03C22.7001 8.37 21.8701 8 21.0001 8H20.9101C20.4101 3.51 16.5901 0 11.9701 0C7.35011 0 3.52011 3.51 3.02011 8H2.97011C2.10011 8 1.27011 8.38 0.700109 9.03C0.130109 9.69 -0.119891 10.56 0.000109112 11.42L1.06011 18.84C1.48011 21.78 4.03011 23.99 7.00011 23.99H16.9701C19.9401 23.99 22.4901 21.78 22.9101 18.84L23.9701 11.42C24.0901 10.56 23.8401 9.69 23.2701 9.03ZM11.9701 2C15.4901 2 18.4101 4.61 18.9001 8H5.04011C5.53011 4.61 8.45011 2 11.9701 2ZM21.9901 11.14L20.9301 18.56C20.6501 20.52 18.9501 21.99 16.9701 21.99H7.00011C5.02011 21.99 3.32011 20.51 3.04011 18.56L1.98011 11.14C1.94011 10.85 2.02011 10.57 2.21011 10.34C2.40011 10.12 2.67011 9.99 2.97011 9.99H21.0001C21.2901 9.99 21.5601 10.11 21.7501 10.33C21.9401 10.55 22.0301 10.84 21.9801 11.13L21.9901 11.14Z" fill="#1A1A1A"/>
</g>
<defs>
<clipPath id="clip0_181_2155">
<rect width="24" height="24" fill="white"/>
</clipPath>
</defs>
</svg>
