<svg width="24" height="24" viewBox="0 0 24 24" fill="none" xmlns="http://www.w3.org/2000/svg">
<path d="M8.865 1.374C8.795 1.358 7.145 1 5.5 1C3.855 1 2.205 1.358 2.135 1.374C1.754 1.457 1.456 1.755 1.373 2.136C1.357 2.205 1 3.855 1 5.5C1 7.145 1.357 8.795 1.373 8.864C1.456 9.245 1.754 9.543 2.135 9.626C2.205 9.642 3.855 10 5.5 10C7.145 10 8.795 9.642 8.865 9.626C9.246 9.543 9.544 9.245 9.627 8.864C9.643 8.795 10 7.145 10 5.5C10 3.855 9.643 2.205 9.627 2.136C9.544 1.755 9.246 1.457 8.865 1.374ZM7.792 7.792C7.222 7.885 6.351 8 5.5 8C4.649 8 3.779 7.885 3.208 7.792C3.114 7.22 3 6.347 3 5.5C3 4.653 3.114 3.779 3.208 3.208C3.778 3.115 4.649 3 5.5 3C6.351 3 7.221 3.115 7.792 3.208C7.886 3.78 8 4.653 8 5.5C8 6.347 7.886 7.221 7.792 7.792ZM13.135 9.626C13.205 9.642 14.855 10 16.5 10C18.145 10 19.795 9.642 19.865 9.626C20.246 9.543 20.544 9.245 20.627 8.864C20.643 8.795 21 7.145 21 5.5C21 3.855 20.643 2.205 20.627 2.136C20.544 1.755 20.246 1.457 19.865 1.374C19.795 1.358 18.145 1 16.5 1C14.855 1 13.205 1.358 13.135 1.374C12.754 1.457 12.456 1.755 12.373 2.136C12.357 2.205 12 3.855 12 5.5C12 7.145 12.357 8.795 12.373 8.864C12.456 9.245 12.754 9.543 13.135 9.626ZM14.208 3.208C14.778 3.115 15.649 3 16.5 3C17.351 3 18.221 3.115 18.792 3.208C18.886 3.78 19 4.653 19 5.5C19 6.347 18.886 7.221 18.792 7.792C18.222 7.885 17.351 8 16.5 8C15.649 8 14.779 7.885 14.208 7.792C14.114 7.22 14 6.347 14 5.5C14 4.653 14.114 3.779 14.208 3.208ZM8.864 12.373C8.795 12.357 7.145 12 5.5 12C3.855 12 2.205 12.357 2.136 12.373C1.754 12.456 1.456 12.754 1.373 13.136C1.357 13.205 1 14.855 1 16.5C1 18.145 1.357 19.795 1.373 19.864C1.456 20.246 1.754 20.544 2.136 20.627C2.205 20.643 3.855 21 5.5 21C7.145 21 8.795 20.643 8.864 20.627C9.246 20.544 9.544 20.246 9.627 19.864C9.643 19.795 10 18.145 10 16.5C10 14.855 9.643 13.205 9.627 13.136C9.544 12.755 9.246 12.457 8.864 12.373ZM7.792 18.792C7.221 18.886 6.347 19 5.5 19C4.653 19 3.779 18.886 3.208 18.792C3.114 18.221 3 17.347 3 16.5C3 15.653 3.114 14.779 3.208 14.208C3.779 14.114 4.653 14 5.5 14C6.347 14 7.221 14.114 7.792 14.208C7.886 14.779 8 15.653 8 16.5C8 17.347 7.886 18.221 7.792 18.792ZM22.707 21.293L20.403 18.989C20.785 18.308 21 17.477 21 16.5C21 13.683 19.317 12 16.5 12C13.683 12 12 13.683 12 16.5C12 19.317 13.683 21 16.5 21C17.477 21 18.308 20.785 18.989 20.403L21.293 22.707C21.684 23.098 22.316 23.098 22.707 22.707C23.098 22.316 23.098 21.684 22.707 21.293ZM14 16.5C14 14.794 14.794 14 16.5 14C18.206 14 19 14.794 19 16.5C19 18.206 18.206 19 16.5 19C14.794 19 14 18.206 14 16.5Z" fill="#2563EB"/>
</svg>
