<svg width="44" height="44" viewBox="0 0 44 44" fill="none" xmlns="http://www.w3.org/2000/svg">
<g opacity="0.5">
<path d="M18.3333 10.9998C12.2668 10.9998 7.33333 15.9333 7.33333 21.9998C7.33333 28.0663 12.2668 32.9998 18.3333 32.9998C24.3998 32.9998 29.3333 28.0663 29.3333 21.9998C29.3333 15.9333 24.3998 10.9998 18.3333 10.9998ZM18.3333 29.3332C14.289 29.3332 11 26.0442 11 21.9998C11 17.9555 14.289 14.6665 18.3333 14.6665C22.3777 14.6665 25.6667 17.9555 25.6667 21.9998C25.6667 26.0442 22.3777 29.3332 18.3333 29.3332ZM34.8333 3.6665H9.16667C4.11217 3.6665 0 7.77867 0 12.8332V31.1665C0 36.221 4.11217 40.3332 9.16667 40.3332H34.8333C39.8878 40.3332 44 36.221 44 31.1665V12.8332C44 7.77867 39.8878 3.6665 34.8333 3.6665ZM40.3333 31.1665C40.3333 34.1988 37.8657 36.6665 34.8333 36.6665H9.16667C6.13433 36.6665 3.66667 34.1988 3.66667 31.1665V12.8332C3.66667 9.80084 6.13433 7.33317 9.16667 7.33317H34.8333C37.8657 7.33317 40.3333 9.80084 40.3333 12.8332V31.1665ZM36.6667 12.8332V23.2447C36.6667 24.495 36.4173 25.7087 35.926 26.8563L33.7682 31.8888C33.4693 32.5855 32.7928 32.9998 32.0833 32.9998C31.8432 32.9998 31.5975 32.954 31.361 32.8513C30.4315 32.4517 29.9988 31.3737 30.3985 30.446L32.5563 25.4135C32.8515 24.7242 33 23.9963 33 23.2447V12.8332C33 11.8193 33.8213 10.9998 34.8333 10.9998C35.8453 10.9998 36.6667 11.8193 36.6667 12.8332ZM21.0833 21.9998C21.0833 23.5178 19.8513 24.7498 18.3333 24.7498C16.8153 24.7498 15.5833 23.5178 15.5833 21.9998C15.5833 20.4818 16.8153 19.2498 18.3333 19.2498C19.8513 19.2498 21.0833 20.4818 21.0833 21.9998Z" fill="#666666"/>
</g>
</svg>
