<svg width="44" height="44" viewBox="0 0 44 44" fill="none" xmlns="http://www.w3.org/2000/svg">
<g opacity="0.5">
<path d="M38.5 22.7772V20.1665C38.5 15.7904 36.7616 11.5936 33.6672 8.49924C30.5729 5.40489 26.376 3.6665 22 3.6665C17.6239 3.6665 13.427 5.40489 10.3327 8.49924C7.23834 11.5936 5.49995 15.7904 5.49995 20.1665V22.7772C3.57708 23.6239 2.00342 25.1054 1.04242 26.9738C0.0814283 28.8422 -0.208571 30.984 0.220972 33.0406C0.650516 35.0973 1.77353 36.944 3.40201 38.2715C5.03049 39.599 7.06559 40.3269 9.16662 40.3332C10.1391 40.3332 11.0717 39.9469 11.7593 39.2592C12.447 38.5716 12.8333 37.639 12.8333 36.6665V25.6665C12.8333 24.694 12.447 23.7614 11.7593 23.0738C11.0717 22.3861 10.1391 21.9998 9.16662 21.9998V20.1665C9.16662 16.7629 10.5187 13.4987 12.9254 11.092C15.3321 8.68525 18.5963 7.33317 22 7.33317C25.4036 7.33317 28.6678 8.68525 31.0745 11.092C33.4812 13.4987 34.8333 16.7629 34.8333 20.1665V21.9998C33.8608 21.9998 32.9282 22.3861 32.2406 23.0738C31.5529 23.7614 31.1666 24.694 31.1666 25.6665V36.6665C31.1666 37.639 31.5529 38.5716 32.2406 39.2592C32.9282 39.9469 33.8608 40.3332 34.8333 40.3332C36.9343 40.3269 38.9694 39.599 40.5979 38.2715C42.2264 36.944 43.3494 35.0973 43.7789 33.0406C44.2085 30.984 43.9185 28.8422 42.9575 26.9738C41.9965 25.1054 40.4228 23.6239 38.5 22.7772ZM9.16662 36.6665C7.70793 36.6665 6.30898 36.087 5.27753 35.0556C4.24608 34.0241 3.66662 32.6252 3.66662 31.1665C3.66662 29.7078 4.24608 28.3089 5.27753 27.2774C6.30898 26.246 7.70793 25.6665 9.16662 25.6665V36.6665ZM34.8333 36.6665V25.6665C36.292 25.6665 37.6909 26.246 38.7224 27.2774C39.7538 28.3089 40.3333 29.7078 40.3333 31.1665C40.3333 32.6252 39.7538 34.0241 38.7224 35.0556C37.6909 36.087 36.292 36.6665 34.8333 36.6665Z" fill="#666666"/>
</g>
</svg>
