<svg width="44" height="44" viewBox="0 0 44 44" fill="none" xmlns="http://www.w3.org/2000/svg">
<g opacity="0.5" clip-path="url(#clip0_55_361)">
<path d="M22 0C17.6488 0 13.3953 1.29028 9.77746 3.70767C6.15958 6.12506 3.33979 9.56099 1.67466 13.581C0.00953229 17.6009 -0.426141 22.0244 0.422734 26.292C1.27161 30.5596 3.36691 34.4796 6.44366 37.5564C9.52042 40.6331 13.4404 42.7284 17.708 43.5773C21.9756 44.4262 26.3991 43.9905 30.419 42.3254C34.439 40.6602 37.875 37.8404 40.2923 34.2225C42.7097 30.6047 44 26.3512 44 22C43.9937 16.1672 41.6738 10.5751 37.5494 6.45062C33.425 2.32619 27.8328 0.00630865 22 0ZM22 40.3333C18.374 40.3333 14.8295 39.2581 11.8146 37.2436C8.79965 35.2291 6.44983 32.3658 5.06222 29.0159C3.67461 25.6659 3.31155 21.9797 4.01895 18.4233C4.72634 14.867 6.47242 11.6003 9.03639 9.03638C11.6003 6.47241 14.867 4.72633 18.4234 4.01894C21.9797 3.31154 25.6659 3.6746 29.0159 5.06221C32.3659 6.44982 35.2291 8.79965 37.2436 11.8145C39.2581 14.8294 40.3333 18.374 40.3333 22C40.328 26.8607 38.3947 31.5207 34.9577 34.9577C31.5207 38.3947 26.8607 40.328 22 40.3333Z" fill="#666666"/>
<path d="M22.0007 12.8335C20.1877 12.8335 18.4154 13.3711 16.9079 14.3784C15.4005 15.3856 14.2256 16.8172 13.5318 18.4922C12.838 20.1672 12.6564 22.0103 13.0101 23.7885C13.3638 25.5667 14.2369 27.2 15.5188 28.482C16.8008 29.764 18.4342 30.637 20.2123 30.9907C21.9905 31.3444 23.8336 31.1629 25.5086 30.4691C27.1836 29.7753 28.6152 28.6003 29.6225 27.0929C30.6297 25.5854 31.1673 23.8132 31.1673 22.0002C31.1644 19.5699 30.1977 17.24 28.4793 15.5216C26.7608 13.8031 24.4309 12.8364 22.0007 12.8335ZM22.0007 27.5002C20.9129 27.5002 19.8495 27.1776 18.945 26.5732C18.0405 25.9689 17.3356 25.1099 16.9193 24.1049C16.503 23.0999 16.3941 21.9941 16.6063 20.9272C16.8186 19.8603 17.3424 18.8803 18.1116 18.1111C18.8808 17.3419 19.8608 16.8181 20.9277 16.6058C21.9946 16.3936 23.1004 16.5025 24.1054 16.9188C25.1104 17.3351 25.9694 18.0401 26.5737 18.9445C27.1781 19.849 27.5007 20.9124 27.5007 22.0002C27.5007 23.4589 26.9212 24.8578 25.8897 25.8893C24.8583 26.9207 23.4593 27.5002 22.0007 27.5002Z" fill="#666666"/>
<path d="M21.9993 23.8332C23.0119 23.8332 23.8327 23.0124 23.8327 21.9998C23.8327 20.9873 23.0119 20.1665 21.9993 20.1665C20.9868 20.1665 20.166 20.9873 20.166 21.9998C20.166 23.0124 20.9868 23.8332 21.9993 23.8332Z" fill="#666666"/>
</g>
<defs>
<clipPath id="clip0_55_361">
<rect width="44" height="44" fill="white"/>
</clipPath>
</defs>
</svg>
