<svg width="44" height="44" viewBox="0 0 44 44" fill="none" xmlns="http://www.w3.org/2000/svg">
<g opacity="0.5">
<path d="M34.8333 5.5H9.16667C4.10667 5.5 0 9.60667 0 14.6667V29.3333C0 34.3933 4.10667 38.5 9.16667 38.5H34.8333C39.8933 38.5 44 34.3933 44 29.3333V14.6667C44 9.60667 39.8933 5.5 34.8333 5.5ZM40.3333 29.3333C40.3333 32.3583 37.8583 34.8333 34.8333 34.8333H33.605L32.2483 32.7983C31.57 31.7717 30.415 31.1667 29.205 31.1667H14.795C13.5667 31.1667 12.43 31.7717 11.7517 32.7983L10.395 34.8333H9.16667C6.14167 34.8333 3.66667 32.3583 3.66667 29.3333V14.6667C3.66667 11.6417 6.14167 9.16667 9.16667 9.16667H34.8333C37.8583 9.16667 40.3333 11.6417 40.3333 14.6667V29.3333ZM31.1667 14.6667H12.8333C9.80833 14.6667 7.33333 17.1417 7.33333 20.1667C7.33333 23.1917 9.80833 25.6667 12.8333 25.6667H31.1667C34.1917 25.6667 36.6667 23.1917 36.6667 20.1667C36.6667 17.1417 34.1917 14.6667 31.1667 14.6667ZM25.9967 18.3333C25.795 18.9017 25.6667 19.525 25.6667 20.1667C25.6667 20.8083 25.795 21.4317 25.9967 22H17.985C18.1867 21.4317 18.315 20.8083 18.315 20.1667C18.315 19.525 18.1867 18.9017 17.985 18.3333H25.9967ZM12.8333 18.3333C13.8417 18.3333 14.6667 19.1583 14.6667 20.1667C14.6667 21.175 13.8417 22 12.8333 22C11.825 22 11 21.175 11 20.1667C11 19.1583 11.825 18.3333 12.8333 18.3333ZM31.1667 22C30.1583 22 29.3333 21.175 29.3333 20.1667C29.3333 19.1583 30.1583 18.3333 31.1667 18.3333C32.175 18.3333 33 19.1583 33 20.1667C33 21.175 32.175 22 31.1667 22Z" fill="#666666"/>
</g>
</svg>
