<svg width="20" height="20" viewBox="0 0 20 20" fill="none" xmlns="http://www.w3.org/2000/svg">
<path d="M15.244 5.24399C15.0877 5.08776 14.8758 5 14.6548 5C14.4339 5 14.2219 5.08776 14.0657 5.24399L10.244 9.06566L6.42232 5.24399C6.26605 5.08776 6.05413 5 5.83316 5C5.61219 5 5.40026 5.08776 5.24399 5.24399C5.08776 5.40026 5 5.61219 5 5.83316C5 6.05413 5.08776 6.26605 5.24399 6.42232L9.06566 10.244L5.24399 14.0657C5.08776 14.2219 5 14.4339 5 14.6548C5 14.8758 5.08776 15.0877 5.24399 15.244C5.40026 15.4002 5.61219 15.488 5.83316 15.488C6.05413 15.488 6.26605 15.4002 6.42232 15.244L10.244 11.4223L14.0657 15.244C14.2219 15.4002 14.4339 15.488 14.6548 15.488C14.8758 15.488 15.0877 15.4002 15.244 15.244C15.4002 15.0877 15.488 14.8758 15.488 14.6548C15.488 14.4339 15.4002 14.2219 15.244 14.0657L11.4223 10.244L15.244 6.42232C15.4002 6.26605 15.488 6.05413 15.488 5.83316C15.488 5.61219 15.4002 5.40026 15.244 5.24399Z" fill="#1A1A1A"/>
</svg>
