<svg width="25" height="24" viewBox="0 0 25 24" fill="none" xmlns="http://www.w3.org/2000/svg">
<g clip-path="url(#clip0_262_452)">
<path d="M14.5996 18.0001H10.5996C9.49661 18.0001 8.59961 17.1031 8.59961 16.0001V12.0001C8.59961 10.8971 9.49661 10.0001 10.5996 10.0001H14.5996C15.7026 10.0001 16.5996 10.8971 16.5996 12.0001V16.0001C16.5996 17.1031 15.7026 18.0001 14.5996 18.0001ZM10.5996 12.0001V16.0001H14.6016L14.5996 12.0001H10.5996ZM19.5996 24.0001H5.59961C2.84261 24.0001 0.599609 21.7571 0.599609 19.0001V9.72411C0.599609 8.05911 1.42361 6.50911 2.80361 5.57911L9.80261 0.855106C11.5016 -0.290895 13.6976 -0.290895 15.3966 0.855106L22.3966 5.57911C23.7756 6.50911 24.5996 8.05811 24.5996 9.72411V19.0001C24.5996 21.7571 22.3566 24.0001 19.5996 24.0001ZM12.5996 1.99711C12.0156 1.99711 11.4316 2.16911 10.9216 2.51411L3.92161 7.23711C3.09361 7.79511 2.59961 8.72411 2.59961 9.72311V18.9991C2.59961 20.6531 3.94561 21.9991 5.59961 21.9991H19.5996C21.2536 21.9991 22.5996 20.6531 22.5996 18.9991V9.72411C22.5996 8.72511 22.1056 7.79511 21.2786 7.23811L14.2776 2.51411C13.7676 2.16911 13.1836 1.99711 12.5996 1.99711Z" fill="#666666"/>
</g>
<defs>
<clipPath id="clip0_262_452">
<rect width="24" height="24" fill="white" transform="translate(0.599609)"/>
</clipPath>
</defs>
</svg>
