<svg width="25" height="24" viewBox="0 0 25 24" fill="none" xmlns="http://www.w3.org/2000/svg">
<g clip-path="url(#clip0_262_456)">
<path d="M12.758 24.008L12.0609 23.4105C11.0999 22.6058 2.70898 15.3591 2.70898 10.0583C2.70898 4.50839 7.20809 0.00927734 12.758 0.00927734C18.3079 0.00927734 22.807 4.50839 22.807 10.0583C22.807 15.3592 14.4161 22.6059 13.4591 23.4145L12.758 24.008ZM12.758 2.18217C8.4102 2.18709 4.88684 5.71045 4.88192 10.0582C4.88192 13.3883 10.0444 18.7081 12.758 21.1429C15.4717 18.7071 20.6341 13.3843 20.6341 10.0582C20.6292 5.71045 17.1058 2.18714 12.758 2.18217Z" fill="#666666"/>
<path d="M12.7578 14.0414C10.5578 14.0414 8.77441 12.258 8.77441 10.0581C8.77441 7.85811 10.5578 6.07471 12.7578 6.07471C14.9577 6.07471 16.7411 7.85811 16.7411 10.0581C16.7411 12.258 14.9577 14.0414 12.7578 14.0414ZM12.7578 8.06633C11.6578 8.06633 10.7661 8.95804 10.7661 10.058C10.7661 11.158 11.6578 12.0497 12.7578 12.0497C13.8577 12.0497 14.7494 11.158 14.7494 10.058C14.7494 8.95804 13.8578 8.06633 12.7578 8.06633Z" fill="#666666"/>
</g>
<defs>
<clipPath id="clip0_262_456">
<rect width="24" height="24" fill="white" transform="translate(0.799805)"/>
</clipPath>
</defs>
</svg>
