<svg width="12" height="12" viewBox="0 0 12 12" fill="none" xmlns="http://www.w3.org/2000/svg">
<path d="M8.99941 5.40039H6.59941V3.00039C6.59941 2.84126 6.5362 2.68865 6.42368 2.57613C6.31116 2.4636 6.15854 2.40039 5.99941 2.40039C5.84028 2.40039 5.68767 2.4636 5.57515 2.57613C5.46263 2.68865 5.39941 2.84126 5.39941 3.00039V5.40039H2.99941C2.84028 5.40039 2.68767 5.4636 2.57515 5.57613C2.46263 5.68865 2.39941 5.84126 2.39941 6.00039C2.39941 6.15952 2.46263 6.31213 2.57515 6.42465C2.68767 6.53718 2.84028 6.60039 2.99941 6.60039H5.39941V9.00039C5.39941 9.15952 5.46263 9.31213 5.57515 9.42466C5.68767 9.53718 5.84028 9.60039 5.99941 9.60039C6.15854 9.60039 6.31116 9.53718 6.42368 9.42466C6.5362 9.31213 6.59941 9.15952 6.59941 9.00039V6.60039H8.99941C9.15854 6.60039 9.31116 6.53718 9.42368 6.42465C9.5362 6.31213 9.59941 6.15952 9.59941 6.00039C9.59941 5.84126 9.5362 5.68865 9.42368 5.57613C9.31116 5.4636 9.15854 5.40039 8.99941 5.40039Z" fill="#1A1A1A"/>
</svg>
