<svg width="16" height="16" viewBox="0 0 16 16" fill="none" xmlns="http://www.w3.org/2000/svg">
<g clip-path="url(#clip0_68_394)">
<path d="M7.52818 11.8047L5.33285 14V0.666667C5.33285 0.298 5.03485 0 4.66618 0C4.29752 0 3.99952 0.298 3.99952 0.666667V14L1.80418 11.8047C1.54352 11.544 1.12218 11.544 0.861516 11.8047C0.600849 12.0653 0.600849 12.4867 0.861516 12.7473L3.72352 15.6093C3.98352 15.8693 4.32485 15.9993 4.66618 15.9993C5.00752 15.9993 5.34885 15.8693 5.60885 15.6093L8.47085 12.7473C8.73152 12.4867 8.73152 12.0653 8.47085 11.8047C8.21018 11.544 7.78885 11.544 7.52818 11.8047ZM15.1375 4.19533C15.3982 3.93467 15.3982 3.51333 15.1375 3.25267L12.2755 0.390667C12.0155 0.130667 11.6742 0 11.3329 0C10.9915 0 10.6502 0.13 10.3902 0.39L7.52818 3.252C7.26752 3.51267 7.26752 3.934 7.52818 4.19467C7.78885 4.45533 8.21018 4.45533 8.47085 4.19467L10.6662 1.99933V15.3333C10.6662 15.702 10.9642 16 11.3329 16C11.7015 16 11.9995 15.702 11.9995 15.3333V2L14.1948 4.19533C14.4555 4.456 14.8769 4.456 15.1375 4.19533Z" fill="#1A1A1A"/>
</g>
<defs>
<clipPath id="clip0_68_394">
<rect width="16" height="16" fill="white"/>
</clipPath>
</defs>
</svg>
